<?xml version="1.0" standalone="no"?><!DOCTYPE svg PUBLIC "-//W3C//DTD SVG 1.1//EN" "http://www.w3.org/Graphics/SVG/1.1/DTD/svg11.dtd"><svg t="1750732893598" class="icon" viewBox="0 0 1024 1024" version="1.1" xmlns="http://www.w3.org/2000/svg" p-id="1286" data-spm-anchor-id="a313x.collections_detail.0.i0.73f13a81LciYPu" xmlns:xlink="http://www.w3.org/1999/xlink" width="84" height="84"><path d="M603.858824 501.458824l-132.517648 132.517647-79.811764-78.305883c-7.529412-7.529412-19.576471-7.529412-27.105883 0s-7.529412 19.576471 0 27.105883l93.364706 93.364705c7.529412 7.529412 19.576471 7.529412 27.105883 0 1.505882-1.505882 1.505882-3.011765 3.011764-3.011764l143.058824-143.058824c7.529412-7.529412 7.529412-19.576471 0-27.105882-7.529412-9.035294-19.576471-9.035294-27.105882-1.505882z" p-id="1287" data-spm-anchor-id="a313x.collections_detail.0.i1.73f13a81LciYPu" class="selected"></path><path d="M755.952941 216.847059h-51.2v-27.105883c0-9.035294-7.529412-16.564706-16.564706-16.564705s-16.564706 7.529412-16.564706 16.564705v27.105883h-316.235294v-27.105883c0-9.035294-7.529412-16.564706-16.564706-16.564705-9.035294 0-16.564706 7.529412-16.564705 16.564705v27.105883H271.058824c-46.682353 0-85.835294 39.152941-85.835295 85.835294v463.811765c0 46.682353 39.152941 85.835294 85.835295 85.835294h487.905882c46.682353 0 85.835294-39.152941 85.835294-85.835294V302.682353c-3.011765-48.188235-40.658824-85.835294-88.847059-85.835294z m-487.905882 34.635294h51.2v27.105882c0 9.035294 7.529412 16.564706 16.564706 16.564706 9.035294 0 16.564706-7.529412 16.564706-16.564706v-27.105882h316.235294v27.105882c0 9.035294 7.529412 16.564706 16.564706 16.564706s16.564706-7.529412 16.564705-16.564706v-27.105882H752.941176c28.611765 0 51.2 22.588235 51.2 51.2v42.164706h-587.294117v-42.164706c0-28.611765 22.588235-51.2 51.2-51.2z m487.905882 566.211765H268.047059c-28.611765 0-51.2-22.588235-51.2-51.2V379.482353h591.811765v387.011765c-1.505882 28.611765-24.094118 51.2-52.705883 51.2z" p-id="1288"></path></svg>