<?xml version="1.0" encoding="UTF-8"?>
<svg width="24" height="24" viewBox="0 0 24 24" fill="none" xmlns="http://www.w3.org/2000/svg">
  <path d="M13 3V4C13 4.55228 13.4477 5 14 5H19C19.5523 5 20 4.55228 20 4V3C20.5523 3 21 3.44772 21 4V20C21 20.5523 20.5523 21 20 21V20C20 19.4477 19.5523 19 19 19H14C13.4477 19 13 19.4477 13 20V21C12.4477 21 12 20.5523 12 20V4C12 3.44772 12.4477 3 13 3Z" fill="currentColor"/>
  <path d="M3 4C3 3.44772 3.44772 3 4 3V4C4 4.55228 4.44772 5 5 5H10C10.5523 5 11 4.55228 11 4V3C11.5523 3 12 3.44772 12 4V20C12 20.5523 11.5523 21 11 21V20C11 19.4477 10.5523 19 10 19H5C4.44772 19 4 19.4477 4 20V21C3.44772 21 3 20.5523 3 20V4Z" fill="currentColor"/>
  <path d="M4 3C3.44772 3 3 3.44772 3 4V20C3 20.5523 3.44772 21 4 21H11C11.5523 21 12 20.5523 12 20V4C12 3.44772 11.5523 3 11 3H4ZM4 4H11V20H4V4Z" fill="currentColor"/>
  <path d="M13 3C12.4477 3 12 3.44772 12 4V20C12 20.5523 12.4477 21 13 21H20C20.5523 21 21 20.5523 21 20V4C21 3.44772 20.5523 3 20 3H13ZM13 4H20V20H13V4Z" fill="currentColor"/>
</svg> 